<svg xmlns="http://www.w3.org/2000/svg" width="42.135" height="56.18" viewBox="0 0 42.135 56.18">
  <path id="Icon_fa-solid-clipboard-list" data-name="Icon fa-solid-clipboard-list" d="M21.067,0a10.522,10.522,0,0,0-9.93,7.022H7.022A7.029,7.029,0,0,0,0,14.045V49.157A7.029,7.029,0,0,0,7.022,56.18h28.09a7.029,7.029,0,0,0,7.022-7.022V14.045a7.029,7.029,0,0,0-7.022-7.022H31A10.522,10.522,0,0,0,21.067,0Zm0,7.022a3.511,3.511,0,1,1-3.511,3.511A3.511,3.511,0,0,1,21.067,7.022ZM7.9,29.845a2.633,2.633,0,1,1,2.633,2.633A2.633,2.633,0,0,1,7.9,29.845ZM19.312,28.09H33.357a1.756,1.756,0,0,1,0,3.511H19.312a1.756,1.756,0,0,1,0-3.511ZM7.9,40.379a2.633,2.633,0,1,1,2.633,2.633A2.633,2.633,0,0,1,7.9,40.379Zm9.656,0a1.761,1.761,0,0,1,1.756-1.756H33.357a1.756,1.756,0,1,1,0,3.511H19.312A1.761,1.761,0,0,1,17.556,40.379Z" fill="#027aff"/>
</svg>
