<svg xmlns="http://www.w3.org/2000/svg" width="64.354" height="56.359" viewBox="0 0 64.354 56.359">
  <path id="Icon_fa-solid-map-location-dot" data-name="Icon fa-solid-map-location-dot" d="M45.584,13.407c0,6.1-8.167,16.971-11.754,21.451a2.1,2.1,0,0,1-3.307,0C26.937,30.378,18.77,19.507,18.77,13.407a13.407,13.407,0,1,1,26.814,0Zm.894,8.983c.391-.771.749-1.542,1.073-2.3.056-.134.112-.279.168-.413l12.96-5.184a2.68,2.68,0,0,1,3.676,2.492V47.238a2.7,2.7,0,0,1-1.687,2.492L46.478,56.2Zm-31.1-6.938a21.207,21.207,0,0,0,1.43,4.637c.324.76.682,1.531,1.073,2.3V50.478l-14.2,5.687A2.68,2.68,0,0,1,0,53.673V23.418a2.7,2.7,0,0,1,1.687-2.492l13.7-5.475Zm21.25,21.641c1.553-1.944,3.989-5.106,6.279-8.6V56.344L21.451,50.21V28.49c2.29,3.5,4.726,6.659,6.279,8.6a5.681,5.681,0,0,0,8.893,0ZM32.177,16.982a4.469,4.469,0,1,0-4.469-4.469A4.469,4.469,0,0,0,32.177,16.982Z" fill="#007aff"/>
</svg>
